Coordinates
version=1
nRows=7
nColumns=40
inDegrees=yes

Units are S.I. units (second, meters, Newtons, ...)
If the header above contains a line with 'inDegrees', this indicates whether rotational values are in degrees (yes) or radians (no).

endheader
time	pelvis_tilt	pelvis_list	pelvis_rotation	pelvis_tx	pelvis_ty	pelvis_tz	hip_flexion_r	hip_adduction_r	hip_rotation_r	knee_angle_r	knee_angle_r_beta	ankle_angle_r	subtalar_angle_r	mtp_angle_r	hip_flexion_l	hip_adduction_l	hip_rotation_l	knee_angle_l	knee_angle_l_beta	ankle_angle_l	subtalar_angle_l	mtp_angle_l	lumbar_extension	lumbar_bending	lumbar_rotation	arm_flex_r	arm_add_r	arm_rot_r	elbow_flex_r	pro_sup_r	wrist_flex_r	wrist_dev_r	arm_flex_l	arm_add_l	arm_rot_l	elbow_flex_l	pro_sup_l	wrist_flex_l	wrist_dev_l
      6.16000000	    -16.92712863	     -0.73104706	     -0.11950326	     -0.41860251	      0.80314942	     -0.90230549	     61.41494912	    -12.54995033	     -4.47946111	     76.17884619	      1.32957169	     35.06088468	      0.00000000	      0.00000000	     62.99629279	    -18.69408405	     -6.58712552	     76.84257878	      1.34115601	     29.61590427	      0.00000000	      0.00000000	    -20.60124553	      0.06369395	      5.13448074	     29.07964956	    -48.11545125	     89.58749244	     89.68957375	     88.52417030	      0.00000000	      0.00000000	     32.24671394	    -46.48381191	     89.69032094	     90.79909541	     88.62146031	      0.00000000	      0.00000000
      6.16500000	    -16.24573714	     -0.55111890	     -0.36042437	     -0.41441832	      0.81023068	     -0.90259664	     59.82587429	    -12.58075318	     -4.65302141	     75.04220227	      1.30973351	     34.79234649	      0.00000000	      0.00000000	     61.11249735	    -18.58417220	     -7.07142653	     75.70293980	      1.32126555	     29.50024668	      0.00000000	      0.00000000	    -20.23512043	     -0.10462993	      5.50511851	     28.78429947	    -47.96259647	     89.55793028	     89.25271042	     88.49388161	      0.00000000	      0.00000000	     32.20838071	    -46.11100834	     89.67205446	     90.35035795	     88.59545812	      0.00000000	      0.00000000
      6.17000000	    -15.52076131	     -0.21195066	     -0.70997356	     -0.41023282	      0.81774203	     -0.90258879	     58.23364615	    -12.60931268	     -4.62595221	     73.82009932	      1.28840379	     34.30566481	      0.00000000	      0.00000000	     59.05816945	    -18.48984237	     -7.84538213	     74.45340563	      1.29945707	     29.27889285	      0.00000000	      0.00000000	    -19.91651445	     -0.47538741	      5.88900779	     28.54414125	    -47.68745272	     89.52973201	     88.71349701	     88.46137441	      0.00000000	      0.00000000	     32.18963799	    -45.80040974	     89.65569792	     89.90786688	     88.56684250	      0.00000000	      0.00000000
      6.17500000	    -14.87277819	     -0.03035904	     -0.94510810	     -0.40630386	      0.82540144	     -0.90263947	     56.63326474	    -12.66270537	     -4.85280625	     72.52398263	      1.26578228	     33.79461533	      0.00000000	      0.00000000	     57.17110332	    -18.39035964	     -8.44121154	     73.12777738	      1.27632049	     28.95552336	      0.00000000	      0.00000000	    -19.53716875	     -0.66791506	      6.20749113	     28.35020065	    -47.42981574	     89.49971093	     88.33188754	     88.43050295	      0.00000000	      0.00000000	     32.18441395	    -45.51905489	     89.63770450	     89.50078709	     88.53419362	      0.00000000	      0.00000000
      6.18000000	    -14.26884166	      0.09576292	     -1.10833670	     -0.40235559	      0.83325601	     -0.90277869	     55.02045886	    -12.72119532	     -5.14200303	     71.13879246	      1.24160615	     33.23572603	      0.00000000	      0.00000000	     55.34529124	    -18.22893019	     -8.93711322	     71.74844143	      1.25224654	     28.47196559	      0.00000000	      0.00000000	    -19.10959993	     -0.75076693	      6.38947325	     28.21061527	    -47.11892250	     89.47306890	     87.81946807	     88.40028408	      0.00000000	      0.00000000	     32.12706654	    -45.22951535	     89.62197216	     89.05834383	     88.50791621	      0.00000000	      0.00000000
      6.18500000	    -13.66648281	      0.09323002	     -1.23977712	     -0.39844122	      0.84135382	     -0.90278722	     53.33659442	    -12.72795603	     -5.62197410	     69.68537319	      1.21623920	     32.62908545	      0.00000000	      0.00000000	     53.55796075	    -18.18082698	     -9.39916988	     70.33286449	      1.22754006	     28.00839102	      0.00000000	      0.00000000	    -18.68483108	     -0.69364167	      6.64253761	     28.05512092	    -46.85141669	     89.44030625	     87.32483055	     88.36682242	      0.00000000	      0.00000000	     32.04972910	    -44.96141197	     89.60449120	     88.57924732	     88.48823743	      0.00000000	      0.00000000
      6.19000000	    -13.03505961	      0.09010838	     -1.44946664	     -0.39461751	      0.84995380	     -0.90273633	     51.57796182	    -12.66072458	     -6.07833359	     68.05284192	      1.18774616	     31.93128950	      0.00000000	      0.00000000	     51.66074970	    -18.20338637	    -10.00396406	     68.78531220	      1.20053017	     27.34810308	      0.00000000	      0.00000000	    -18.31874516	     -0.67308089	      6.92881445	     27.92513503	    -46.55659214	     89.41464373	     86.72304981	     88.34099119	      0.00000000	      0.00000000	     32.01715471	    -44.63301905	     89.59161774	     88.00124308	     88.46554553	      0.00000000	      0.00000000
